<svg id="Layer_1" data-name="Layer 1" xmlns="http://www.w3.org/2000/svg" viewBox="0 0 1080 1080"><defs><style>.cls-1{font-size:136.41px;font-family:MADEBonVoyage, MADE Bon Voyage;}.cls-1,.cls-7{fill:#f7dfb1;}.cls-2{letter-spacing:-0.04em;}.cls-3{letter-spacing:-0.1em;}.cls-4{letter-spacing:-0.12em;}.cls-5{letter-spacing:-0.18em;}.cls-6{letter-spacing:-0.09em;}</style></defs><title>Stalwart final Logo</title><text class="cls-1" transform="translate(180.36 704.72)"><tspan class="cls-2">S</tspan><tspan class="cls-3" x="77.21" y="0">T</tspan><tspan x="154.96" y="0">A</tspan><tspan class="cls-4" x="255.49" y="0">L</tspan><tspan class="cls-5" x="319.47" y="0">W</tspan><tspan x="441.28" y="0">A</tspan><tspan class="cls-6" x="541.81" y="0">R</tspan><tspan x="627.89" y="0">T</tspan></text><path class="cls-7" d="M545.36,341.13c.64,1.44,1.36,2.86,1.89,4.34,3.1,8.58,1.29,16.23-4.44,23.11-2.78,3.34-5.43,6.81-8.46,9.91a58.54,58.54,0,0,1-8,6.64c-8.16,5.79-16.43,11.44-24.64,17.13.37-1.08.82-2.46,1.32-3.82a83,83,0,0,1,11.58-20.89c2.71-3.59,5.89-6.82,9-10.13,1.12-1.21,2.5-2,4.3-1a13.59,13.59,0,0,0,3.68,1.2A81.4,81.4,0,0,1,516,333.78c-.84,8.6-.6,17,3.08,25a2.44,2.44,0,0,1-.19,3c-3.93,5.08-7.94,10.15-11.43,15.54-2.83,4.37-5,9.2-7.78,13.76,1.59-4.7,2.85-9.53,4.84-14,2.57-5.82,5.79-11.34,8.56-17.07a4.13,4.13,0,0,0-.14-3.23c-4.16-8.14-6.84-16.63-6.55-25.88a29.87,29.87,0,0,1,3.39-13.5c3,3.08,5.67,6.19,8.69,9,5.51,5,11.63,9.12,19.34,9.91a15.79,15.79,0,0,0,4.79-.37,38.77,38.77,0,0,1,16.4-.43c8.56,1.82,14.15,7,16.79,15.22a45.37,45.37,0,0,1-.24,28.45c-4.12,12.68-8.74,25.19-13,37.81-3.1,9.12-5.2,18.43-4.05,28.17.3,2.54.88,5.05,1.44,8.25a29.75,29.75,0,0,1-4.81-12.44c-2.2-12.42-.27-24.55,2.78-36.57,1-3.9,2.21-7.74,3.2-11.76-8,9-16.54,17.58-27.44,23.93,4.83,2.61,8.67,5.79,10.47,10.9l.7-.14v-9.54c2.32,1.77,3.71,6,3.2,9.5-.3,2.09-1,4.14-1.1,6.22-.19,3.1,0,6.21,0,9.27-3.7-.65-6-3.43-7.12-8.94-4.27.27-8.49-.12-12.32-3.76-.73,10.91.06,20.92,4.6,30.42-1.81-1-4-4.12-5.87-8.73-1.38-3.35-2.58-6.78-3.86-10.17l-.59.14c1.09,4.58,1.94,9.24,3.32,13.73a78.38,78.38,0,0,0,14.19,26.4,3.86,3.86,0,0,0,2.3,1.5c10.18.65,20.27.29,30-3.28a5.75,5.75,0,0,0,1.88-1.14c-8.83,1.17-17.61,1.77-26.28-1,4.86-.19,9.72-.27,14.56-.61,7.78-.55,15.44-1.67,22.79-4.6,2.26-.9,2.64-2.27,2.77-4.21.19-2.85.39-5.71.59-8.62,6.13,10.87,3.92,32.22-3.83,43.43-.27-4.83-.55-9.69-.82-14.52-6.61,1.69-12.67,3.46-18.84,4.74s-12.5,1.78-19.23.14c2.56,5.31,4.78,10.23,4.94,15.83-3.09-5-6-10.14-11-13.69q13.77,18.7,1.52,38.33l.54.51c1.27-1,2.61-1.86,3.79-2.93s1.87-2.26,2.95-3.22c1.63-1.45,2.47-1.4,4.4-.16.12.08.32,0,.47.1,7.74,2.79,9.14,4.53,9.83,12.22,2-1.76,2-3.35.06-10.13l6.07,4.22c1.74-1.84,3.54-4.28,5.87-6a26.55,26.55,0,0,1,7.87-3.53c-4.34,4.12-6.93,8.74-6,14.89a20.32,20.32,0,0,1,2-4c1.73-2.2,3.4-4.72,5.69-6.16,3.45-2.17,4.1-5,3.51-8.52a47.56,47.56,0,0,0-1.42-5.06l.66-.39c1.38,2.28,2.79,4.55,4.1,6.86a9.9,9.9,0,0,1,.78,2.3c2.64,9.23.51,13.39-8.51,16.66a4.42,4.42,0,0,0-2.11,1.33l5.41-.3c-5.53,7.31-11.62,13.16-20.86,13.61-8.72.43-14.63-5-20-10.88l.22-.78,8.13.78a11.79,11.79,0,0,0-7.36-3.47,6.2,6.2,0,0,0-1.22-.06c-7.87.38-10.5-3.62-8.92-11.32,1.15-5.54,1.93-11.07-.35-16.5a39.81,39.81,0,0,0-2.61-4.5l-.56.25c.39,1.72.78,3.43,1.2,5.26-5.19-.79-8.87-5-8.45-10.21.56-6.94-1.37-13.16-4.42-19.16-6.11-12.05-10.51-24.58-11-38.24a3.41,3.41,0,0,0-.35-.81c-.57.49-1.06.85-1.49,1.29a69.33,69.33,0,0,0-16.19,26.25c-5,14.45-5.19,29.24-3.12,44.16,2.23,16,7.13,31.24,13.52,46A102,102,0,0,1,507,575.87c-3.92-6.57-8.24-12.94-11.7-19.75a119.61,119.61,0,0,1-13-65.22c2.14-25.51,13.4-46.54,32.15-63.75,8-7.34,16-14.71,23.87-22.19a80,80,0,0,0,17.31-23.82,7.54,7.54,0,0,0,.56-1.35,13.6,13.6,0,0,0,.51-4.17c-1.87,2.36-3.67,4.79-5.64,7.08-8.89,10.38-19.43,19-29.91,27.68-9.13,7.56-18.06,15.33-25.37,24.76a80,80,0,0,0-12.33,22.51,3,3,0,0,1-.74,1.2c.22-9.79,1.18-19.46,3.94-29-13,3.84-22.58,29.53-20.73,54.35-.47-1.27-1-2.51-1.38-3.81-3.25-12.49-2.94-24.68,2.95-36.44A68,68,0,0,1,489.13,419c10.13-7.26,20.75-13.86,31.35-20.43,7.94-4.91,15.92-9.84,22-16.95,7.62-8.89,12.53-19,9.62-31.24A13.38,13.38,0,0,0,545.36,341.13Z"/><path class="cls-7" d="M582.06,458.16c-1-10,1.82-19,7.18-27.25,3.41-5.26,5.61-10.82,4.18-17.21-.79-3.55-1.78-7.06-2.8-10.55A35.53,35.53,0,0,1,589,397l3.7,5c-.91-6.49-2.69-12.56-7-17.64l-7.84,13.18-.63-.21c7.36-18.66,9.43-37.25-.41-55.72.08-.11.13-.31.25-.37,5.69-2.89,4.8-3.9,7.78,2.61,1.16,2.55,1.72,5.38,3.12,8.12,0-2.8.18-5.62-.06-8.4-.18-2.07-1-4.09-1.35-6.16a2.58,2.58,0,0,1,.39-2.08c2.58-2.09,5.29-4,8-6,.37-.27.77-.5,1.63-1.06v16.21c3.12-6.52,5.36-12.51,4.78-19.19a3.68,3.68,0,0,1,1.45-3.55c2.29-1.91,4.45-4,7-6.31A45.25,45.25,0,0,1,607.73,341a61.91,61.91,0,0,1-13.42,21.18c3.71,6.23,7.58,12.12,10.84,18.34,7.72,14.68,12,30.24,10.71,47a62.08,62.08,0,0,1-11,30.81c7.26-20.5,8.28-40.24-6.43-58.18,2.21,8.85,4,17.69,1,26.65l3.22,1.76c-6.73,3.76-11,8.58-12.62,15.59v-6.28C585.57,444,583.66,451,582.06,458.16Z"/><path class="cls-7" d="M606.51,540.22c8.47-26.32,7.37-51.37-8-75.18.81.57,1.67,1.08,2.41,1.72,11.11,9.71,16.77,21.87,16.55,36.71a71.77,71.77,0,0,1-10.17,35.59C607.11,539.47,606.79,539.83,606.51,540.22Z"/></svg>