<?xml version="1.0" encoding="utf-8"?>
<!-- Generator: Adobe Illustrator 23.0.1, SVG Export Plug-In . SVG Version: 6.00 Build 0)  -->
<svg version="1.1" id="Layer_1" xmlns="http://www.w3.org/2000/svg" xmlns:xlink="http://www.w3.org/1999/xlink" x="0px" y="0px"
	 viewBox="0 0 711 393.6" style="enable-background:new 0 0 711 393.6;" xml:space="preserve">
<style type="text/css">
	.st0{fill:#3B221D;}
	.st1{font-family:'MADEBonVoyage';}
	.st2{font-size:136.41px;}
	.st3{letter-spacing:-5;}
	.st4{letter-spacing:-13;}
	.st5{letter-spacing:-16;}
	.st6{letter-spacing:-24;}
	.st7{letter-spacing:-12;}
</style>
<title>Stalwart final Logo</title>
<text transform="matrix(1 0 0 1 -4.64 389.29)" class="st0 st1 st2 st3">S</text>
<text transform="matrix(1 0 0 1 72.57 389.29)" class="st0 st1 st2 st4">T</text>
<text transform="matrix(1 0 0 1 150.32 389.29)" class="st0 st1 st2">A</text>
<text transform="matrix(1 0 0 1 250.85 389.29)" class="st0 st1 st2 st5">L</text>
<text transform="matrix(1 0 0 1 314.83 389.29)" class="st0 st1 st2 st6">W</text>
<text transform="matrix(1 0 0 1 436.64 389.29)" class="st0 st1 st2">A</text>
<text transform="matrix(1 0 0 1 537.17 389.29)" class="st0 st1 st2 st7">R</text>
<text transform="matrix(1 0 0 1 623.25 389.29)" class="st0 st1 st2">T</text>
<path class="st0" d="M360.4,25.7c0.6,1.4,1.4,2.9,1.9,4.3c3.1,8.6,1.3,16.2-4.4,23.1c-2.8,3.3-5.4,6.8-8.5,9.9
	c-2.5,2.4-5.1,4.7-8,6.6c-8.2,5.8-16.4,11.4-24.6,17.1c0.4-1.1,0.8-2.5,1.3-3.8c2.8-7.5,6.7-14.5,11.6-20.9c2.7-3.6,5.9-6.8,9-10.1
	c1.1-1.2,2.5-2,4.3-1c1.2,0.6,2.4,1,3.7,1.2c-7.7-9.9-13.1-21.5-15.6-33.8c-0.8,8.6-0.6,17,3.1,25c0.6,0.9,0.6,2.2-0.2,3
	c-3.9,5.1-7.9,10.1-11.4,15.5c-2.8,4.4-5,9.2-7.8,13.8c1.6-4.7,2.9-9.5,4.8-14c2.6-5.8,5.8-11.3,8.6-17.1c0.4-1.1,0.3-2.2-0.1-3.2
	c-4.2-8.1-6.8-16.6-6.5-25.9c0.1-4.7,1.2-9.3,3.4-13.5c3,3.1,5.7,6.2,8.7,9c5.5,5,11.6,9.1,19.3,9.9c1.6,0.1,3.2,0,4.8-0.4
	c5.4-1.3,11-1.5,16.4-0.4c8.6,1.8,14.2,7,16.8,15.2c3,9.3,2.9,19.2-0.2,28.5c-4.1,12.7-8.7,25.2-13,37.8c-3.1,9.1-5.2,18.4-4,28.2
	c0.3,2.5,0.9,5,1.4,8.3c-2.5-3.7-4.2-8-4.8-12.4c-2.2-12.4-0.3-24.5,2.8-36.6c1-3.9,2.2-7.7,3.2-11.8c-8,9-16.5,17.6-27.4,23.9
	c4.8,2.6,8.7,5.8,10.5,10.9l0.7-0.1v-9.5c2.3,1.8,3.7,6,3.2,9.5c-0.3,2.1-1,4.1-1.1,6.2c-0.2,3.1,0,6.2,0,9.3
	c-3.7-0.6-6-3.4-7.1-8.9c-4.3,0.3-8.5-0.1-12.3-3.8c-0.7,10.9,0.1,20.9,4.6,30.4c-1.8-1-4-4.1-5.9-8.7c-1.4-3.4-2.6-6.8-3.9-10.2
	l-0.6,0.1c1.1,4.6,1.9,9.2,3.3,13.7c3,9.6,7.8,18.6,14.2,26.4c0.6,0.8,1.4,1.3,2.3,1.5c10.2,0.6,20.3,0.3,30-3.3
	c0.7-0.3,1.3-0.6,1.9-1.1c-8.8,1.2-17.6,1.8-26.3-1c4.9-0.2,9.7-0.3,14.6-0.6c7.8-0.5,15.4-1.7,22.8-4.6c2.3-0.9,2.6-2.3,2.8-4.2
	c0.2-2.9,0.4-5.7,0.6-8.6c6.1,10.9,3.9,32.2-3.8,43.4c-0.3-4.8-0.5-9.7-0.8-14.5c-6.6,1.7-12.7,3.5-18.8,4.7s-12.5,1.8-19.2,0.1
	c2.6,5.3,4.8,10.2,4.9,15.8c-3.1-5-6-10.1-11-13.7c9.2,12.5,9.7,25.2,1.5,38.3l0.5,0.5c1.3-1,2.6-1.9,3.8-2.9s1.9-2.3,3-3.2
	c1.6-1.5,2.5-1.4,4.4-0.2c0.1,0.1,0.3,0,0.5,0.1c7.7,2.8,9.1,4.5,9.8,12.2c2-1.8,2-3.3,0.1-10.1l6.1,4.2c1.7-1.8,3.5-4.3,5.9-6
	c2.4-1.6,5.1-2.8,7.9-3.5c-4.3,4.1-6.9,8.7-6,14.9c0.5-1.4,1.2-2.7,2-4c1.7-2.2,3.4-4.7,5.7-6.2c3.5-2.2,4.1-5,3.5-8.5
	c-0.4-1.7-0.9-3.4-1.4-5.1l0.7-0.4c1.4,2.3,2.8,4.5,4.1,6.9c0.4,0.7,0.6,1.5,0.8,2.3c2.6,9.2,0.5,13.4-8.5,16.7
	c-0.8,0.2-1.5,0.7-2.1,1.3l5.4-0.3c-5.5,7.3-11.6,13.2-20.9,13.6c-8.7,0.4-14.6-5-20-10.9l0.2-0.8l8.1,0.8c-2-2-4.6-3.2-7.4-3.5
	c-0.4-0.1-0.8-0.1-1.2-0.1c-7.9,0.4-10.5-3.6-8.9-11.3c1.2-5.5,1.9-11.1-0.3-16.5c-0.8-1.6-1.6-3.1-2.6-4.5l-0.6,0.3
	c0.4,1.7,0.8,3.4,1.2,5.3c-5.2-0.8-8.9-5-8.5-10.2c0.6-6.9-1.4-13.2-4.4-19.2c-6.1-12-10.5-24.6-11-38.2c-0.1-0.3-0.2-0.6-0.4-0.8
	c-0.6,0.5-1.1,0.9-1.5,1.3c-7.3,7.4-12.8,16.4-16.2,26.3c-5,14.5-5.2,29.2-3.1,44.2c2.2,16,7.1,31.2,13.5,46c1.6,3.7,3,7.5,4.2,11.3
	c-3.9-6.6-8.2-12.9-11.7-19.8c-10.4-20.1-14.9-42.7-13-65.2c2.1-25.5,13.4-46.5,32.2-63.8c8-7.3,16-14.7,23.9-22.2
	c7.2-6.8,13.1-14.9,17.3-23.8c0.2-0.4,0.4-0.9,0.6-1.4c0.4-1.4,0.6-2.8,0.5-4.2c-1.9,2.4-3.7,4.8-5.6,7.1
	c-8.9,10.4-19.4,19-29.9,27.7c-9.1,7.6-18.1,15.3-25.4,24.8c-5.3,6.8-9.5,14.4-12.3,22.5c-0.1,0.5-0.4,0.9-0.7,1.2
	c0.2-9.8,1.2-19.5,3.9-29c-13,3.8-22.6,29.5-20.7,54.4c-0.5-1.3-1-2.5-1.4-3.8c-3.3-12.5-2.9-24.7,3-36.4
	c5.1-10,12.5-18.5,21.6-24.9c10.1-7.3,20.8-13.9,31.3-20.4c7.9-4.9,15.9-9.8,22-17c7.6-8.9,12.5-19,9.6-31.2
	C366.4,31,363.9,27.6,360.4,25.7z"/>
<path class="st0" d="M397.1,142.7c-1-10,1.8-19,7.2-27.3c3.4-5.3,5.6-10.8,4.2-17.2c-0.8-3.5-1.8-7.1-2.8-10.5
	c-0.7-2-1.3-4.1-1.6-6.2l3.7,5c-0.9-6.5-2.7-12.6-7-17.6l-7.8,13.2l-0.6-0.2c7.4-18.7,9.4-37.3-0.4-55.7c0.1-0.1,0.1-0.3,0.3-0.4
	c5.7-2.9,4.8-3.9,7.8,2.6c1.2,2.5,1.7,5.4,3.1,8.1c0-2.8,0.2-5.6-0.1-8.4c-0.2-2.1-1-4.1-1.3-6.2c-0.2-0.7,0-1.5,0.4-2.1
	c2.6-2.1,5.3-4,8-6c0.4-0.3,0.8-0.5,1.6-1.1V29c3.1-6.5,5.4-12.5,4.8-19.2c-0.2-1.4,0.3-2.7,1.5-3.5c2.3-1.9,4.5-4,7-6.3
	c1.8,8.5,1.1,17.4-2.1,25.6c-3,7.9-7.5,15.1-13.4,21.2c3.7,6.2,7.6,12.1,10.8,18.3c7.7,14.7,12,30.2,10.7,47
	c-0.8,11.1-4.6,21.7-11,30.8c7.3-20.5,8.3-40.2-6.4-58.2c2.2,8.9,4,17.7,1,26.6l3.2,1.8c-6.7,3.8-11,8.6-12.6,15.6v-6.3
	C400.6,128.6,398.7,135.6,397.1,142.7z"/>
<path class="st0" d="M421.5,224.8c8.5-26.3,7.4-51.4-8-75.2c0.8,0.6,1.7,1.1,2.4,1.7c11.1,9.7,16.8,21.9,16.5,36.7
	c-0.2,12.5-3.7,24.8-10.2,35.6C422.1,224,421.8,224.4,421.5,224.8z"/>
</svg>
